<?xml version="1.0" encoding="utf-8"?>
<svg version="1.0" xmlns="http://www.w3.org/2000/svg" xmlns:xlink="http://www.w3.org/1999/xlink"
	x="0px" y="0px" width="36.8504px" height="36.852px" viewBox="0 0 36.8504 36.852">
<g transform="scale(0.5)">
<path opacity="0.38" fill="#CCCCCC" d="M36.88107,1.34618v2.74463
	c1.72868,0.00198,3.42715,0.1406,5.08289,0.40331c0.62642,0.09967,1.15762,0.48714,1.51926,1.00795
	c2.99909,4.32091,8.25056,6.86784,13.49822,6.54506c0.71231-0.04357,1.42743,0.14852,1.95385,0.63005
	c2.43406,2.22844,4.53238,4.81795,6.20297,7.688c0.3642,0.62576,0.39432,1.37727,0.1878,2.07134
	c-1.52372,5.11961-0.16494,10.91383,3.49332,14.81426c0.44061,0.46965,0.70984,1.08419,0.66801,1.72711
	c-0.2208,3.39481-0.95498,6.64771-2.1324,9.6798c-0.2373,0.6109-0.75464,1.05547-1.36745,1.28848
	c-5.13768,1.95418-8.96023,6.7685-9.6949,12.21683c-0.08754,0.65018-0.40282,1.25548-0.94367,1.62645
	c-2.63233,1.80665-5.54099,3.23507-8.64834,4.21431c-0.70893,0.22311-1.46803,0.07426-2.10864-0.30232
	c-4.69847-2.76377-10.78486-2.76377-15.48334,0c-0.64061,0.37658-1.39971,0.52543-2.10864,0.30232
	c-3.1071-0.97858-6.01518-2.40733-8.64512-4.21365c-0.54077-0.37163-0.85596-0.97692-0.944-1.62711
	c-0.73731-5.44833-4.55994-10.26298-9.69482-12.21683c-0.61256-0.23301-1.12965-0.67725-1.36679-1.28815
	c-1.17759-3.03209-1.9121-6.28532-2.13529-9.68013c-0.04233-0.64292,0.22666-1.25746,0.66726-1.72711
	c3.65852-3.90044,5.01994-9.69465,3.49391-14.81426c-0.20685-0.69408-0.1769-1.44592,0.18738-2.07134
	c1.67042-2.86971,3.76858-5.45955,6.2024-7.68734c0.52666-0.48219,1.24211-0.67428,1.95492-0.63071
	c5.24973,0.32278,10.4988-2.22415,13.49764-6.54506c0.36156-0.52081,0.89301-0.90828,1.51943-1.00762
	c1.6573-0.26304,3.35397-0.40166,5.08281-0.40364V1.34618C17.22443,1.36268,1.34537,17.2542,1.34537,36.85044
	c0,19.60944,15.89573,35.50822,35.505,35.50822c19.60944,0,35.50517-15.89878,35.50517-35.50822
	C72.35555,17.25453,56.47623,1.36268,36.88107,1.34618z"/>
<g opacity="0.32">
	<g>
		<path fill="#9C9C9C" d="M36.8503,4.83974c1.66313,0,3.34405,0.13297,4.99605,0.39525
			c0.39013,0.06194,0.75264,0.30876,1.02075,0.69498c2.95208,4.25276,8.01755,6.89462,13.21965,6.89462
			c0.31313,0,0.62713-0.00955,0.94068-0.02884c0.05012-0.00308,0.10022-0.00464,0.15026-0.00464
			c0.49721,0,0.94155,0.15609,1.25117,0.43951c2.39853,2.19571,4.4378,4.72307,6.06118,7.51188
			c0.23798,0.40881,0.2796,0.93442,0.11721,1.48001c-1.59678,5.3646-0.15816,11.46488,3.66505,15.54117
			c0.32716,0.34882,0.4929,0.76273,0.46671,1.16548c-0.21221,3.26211-0.91309,6.44384-2.08313,9.45682
			c-0.14799,0.38105-0.48003,0.6862-0.93497,0.85923c-5.4063,2.0561-9.39885,7.08731-10.1715,12.81761
			c-0.06511,0.48289-0.28701,0.87652-0.62482,1.10837c-2.60117,1.78527-5.44394,3.17049-8.44934,4.11716
			c-0.14761,0.0465-0.30387,0.07007-0.46445,0.07007c-0.34162,0-0.70075-0.10503-1.03856-0.30372
			c-2.42047-1.4237-5.22897-2.17622-8.12189-2.17622c-2.89293,0-5.70145,0.75253-8.12191,2.17622
			c-0.33782,0.1987-0.69696,0.30372-1.03858,0.30372c-0.16059,0-0.31685-0.02357-0.46445-0.07007
			c-3.00621-0.94693-5.84782-2.33194-8.44592-4.11656c-0.33789-0.23209-0.55999-0.62605-0.62538-1.10929
			c-0.77543-5.7301-4.76793-10.76118-10.17137-12.81727c-0.45465-0.173-0.78649-0.478-0.93437-0.85881
			c-1.16948-3.01129-1.87133-6.19335-2.08604-9.45779c-0.02648-0.40263,0.139-0.81633,0.46596-1.1649
			c3.82541-4.07827,5.26424-10.17869,3.66559-15.54155c-0.16262-0.54552-0.12113-1.07108,0.11683-1.47987
			c1.62328-2.7886,3.66239-5.31578,6.06067-7.51131c0.30988-0.28368,0.75455-0.43991,1.25213-0.43989
			c0.05002,0,0.10023,0.00157,0.1503,0.00465c0.31398,0.0193,0.62741,0.02883,0.94097,0.02883
			c5.20184,0,10.26699-2.64188,13.2188-6.89465c0.268-0.38612,0.63055-0.63287,1.02088-0.69482
			C33.50805,4.97277,35.1889,4.83974,36.8503,4.83974 M36.8503,4.08974c-1.73971,0-3.44623,0.14014-5.11338,0.40466
			c-0.62642,0.0994-1.15783,0.48685-1.51948,1.0079c-2.82817,4.07466-7.65843,6.5723-12.60267,6.5723
			c-0.29822,0-0.59631-0.00906-0.89495-0.02742c-0.06543-0.00402-0.13099-0.00605-0.19632-0.00606
			c-0.64631-0.00002-1.28018,0.19875-1.75856,0.63669c-2.43383,2.22808-4.53194,4.81752-6.20242,7.6872
			c-0.36427,0.62577-0.39424,1.37756-0.18739,2.07144c1.52604,5.1193,0.16468,10.91381-3.49387,14.81419
			c-0.44063,0.46975-0.70959,1.08454-0.66732,1.72722c0.22328,3.39472,0.95774,6.64802,2.13529,9.68009
			c0.23724,0.61089,0.75427,1.05519,1.36677,1.28826c5.13497,1.95393,8.95757,6.76854,9.69487,12.21688
			c0.08797,0.65009,0.40323,1.25549,0.94397,1.62692c2.62993,1.80648,5.53805,3.23496,8.64523,4.2137
			c0.22663,0.07139,0.4584,0.10472,0.68978,0.10472c0.49236,0,0.983-0.15092,1.41881-0.40725
			c2.34924-1.38179,5.04546-2.07269,7.74168-2.07269s5.39243,0.6909,7.74165,2.07269
			c0.43576,0.25631,0.92649,0.40726,1.4188,0.40726c0.23143,0,0.46311-0.03332,0.68978-0.10472
			c3.10745-0.97882,6.01605-2.40746,8.64842-4.21414c0.5408-0.37117,0.85604-0.97651,0.94368-1.62653
			c0.73463-5.44831,4.55719-10.26288,9.69484-12.21681c0.61283-0.23308,1.13014-0.67755,1.36749-1.28874
			c1.17741-3.03192,1.91159-6.28508,2.13242-9.67963c0.04182-0.64275-0.22744-1.25743-0.66807-1.72724
			c-3.6582-3.90036-5.01703-9.69485-3.49327-14.81414c0.20654-0.6939,0.17637-1.44558-0.18786-2.07128
			c-1.67059-2.86992-3.76889-5.45955-6.20294-7.68777c-0.47809-0.43765-1.1117-0.63631-1.7576-0.63631
			c-0.06538,0-0.13084,0.00203-0.19633,0.00606c-0.29818,0.01834-0.59681,0.02742-0.8946,0.02742
			c-4.94291,0-9.7749-2.49738-12.60355-6.5723c-0.36169-0.52104-0.89283-0.90858-1.51927-1.00803
			C40.29828,4.22983,38.58971,4.08974,36.8503,4.08974L36.8503,4.08974z"/>
	</g>
</g>
<g opacity="0.6">
	<path fill="#D4A017" d="M36.8504,8.49432c1.00917,0,2.0306,0.05545,3.03596,0.16502c1.0237,0.11155,2.01054,0.68385,2.77869,1.6116
		c2.77718,3.35488,7.02839,5.35757,11.37198,5.35757c0.11558,0,0.23185-0.00132,0.34755-0.00429l0.07016-0.00099
		c0.75684,0,1.48078,0.29803,2.03858,0.83897c1.66045,1.60961,3.11795,3.41527,4.33206,5.36714
		c0.42156,0.67758,0.552,1.4974,0.35788,2.24957c-1.18121,4.57669-0.00884,9.65043,3.05957,13.24162
		c0.51812,0.60629,0.75951,1.38848,0.67967,2.20204c-0.21066,2.14725-0.66622,4.26315-1.35403,6.28862
		c-0.30397,0.89507-0.99934,1.63305-1.95789,2.07761c-4.22021,1.95682-7.38781,6.00544-8.2667,10.56596
		c-0.17115,0.88814-0.66227,1.62942-1.38305,2.08652c-1.82386,1.15779-3.78186,2.10468-5.8197,2.81394
		c-0.31301,0.10891-0.63837,0.16403-0.96706,0.16403c-0.47469,0-0.94546-0.11816-1.36161-0.34193
		c-2.10332-1.13039-4.51068-1.7281-6.96183-1.7281c-2.4514,0-4.85895,0.59771-6.96232,1.72843
		c-0.41595,0.22344-0.8867,0.34159-1.36135,0.34159c-0.32877,0-0.65417-0.05512-0.96729-0.16403
		c-2.03706-0.70926-3.99376-1.65516-5.8159-2.81229c-0.72121-0.4581-1.21302-1.20004-1.38485-2.08917
		c-0.88104-4.56019-4.04855-8.60848-8.26623-10.56497c-0.95811-0.44456-1.65313-1.18221-1.95704-2.07695
		c-0.68788-2.02481-1.14419-4.1417-1.35626-6.29126c-0.07903-0.80101,0.16818-1.60301,0.6783-2.19973
		c3.07036-3.59251,4.24309-8.66657,3.06051-13.24227c-0.19437-0.75183-0.06407-1.57199,0.35756-2.24957
		c1.2137-1.95121,2.67092-3.75687,4.33102-5.36648c0.55833-0.54127,1.28287-0.8393,2.04019-0.8393l0.07022,0.00099
		c0.11597,0.00297,0.23172,0.00429,0.3476,0.00429c4.34359,0,8.59449-2.00303,11.37114-5.35757
		c0.76773-0.92775,1.75434-1.49971,2.77807-1.61127C34.82155,8.5501,35.84316,8.49432,36.8504,8.49432 M36.8504,7.48043
		c-1.06318,0-2.11249,0.05875-3.14615,0.17129c-1.37017,0.14918-2.57056,0.91092-3.44937,1.97266
		c-2.57875,3.1156-6.54152,4.99023-10.59009,4.99023c-0.10755,0-0.215-0.00132-0.32265-0.00396
		c-0.03175-0.00066-0.0635-0.00132-0.09516-0.00132c-1.02675,0-2.0065,0.40859-2.74582,1.12511
		c-1.71115,1.65912-3.22107,3.52485-4.48633,5.5589c-0.56543,0.90894-0.74612,2.00269-0.47824,3.03903
		c1.10226,4.2648,0.01335,8.97978-2.84964,12.32971c-0.69958,0.8185-1.02224,1.88652-0.91655,2.95817
		c0.22279,2.25814,0.6998,4.44104,1.40525,6.51767c0.40924,1.20498,1.336,2.13504,2.49025,2.6707
		c3.93764,1.82645,6.87302,5.56979,7.69756,9.83756c0.21881,1.13237,0.86325,2.13438,1.83687,2.75255
		c1.87459,1.19046,3.89437,2.17201,6.02606,2.91394c0.42289,0.1472,0.86261,0.22047,1.30057,0.22047
		c0.63606,0,1.26853-0.15446,1.84134-0.46239c1.99358-1.07165,4.23808-1.60764,6.48234-1.60764
		c2.24425,0,4.48824,0.53566,6.48182,1.60731c0.57284,0.30793,1.20553,0.46272,1.84161,0.46272
		c0.43798,0,0.87752-0.07327,1.30042-0.22047c2.13252-0.74226,4.1533-1.72414,6.02972-2.91526
		c0.97309-0.61751,1.61716-1.61885,1.83526-2.7509c0.82247-4.26777,3.75792-8.01111,7.69762-9.83789
		c1.15482-0.53566,2.0821-1.46605,2.49142-2.67136c0.70502-2.07629,1.18156-4.2582,1.40304-6.51569
		c0.1052-1.07231-0.21796-2.14065-0.91789-2.95982c-2.8624-3.34993-3.94933-8.06491-2.84868-12.32938
		c0.26748-1.03633,0.08659-2.13009-0.47873-3.0387c-1.26545-2.03438-2.77569-3.90044-4.48723-5.55956
		c-0.73889-0.71652-1.71813-1.12478-2.74427-1.12478c-0.0317,0-0.06339,0.00066-0.09517,0.00132
		c-0.10736,0.00264-0.21527,0.00396-0.32254,0.00396c-4.04755,0-8.01155-1.87431-10.59097-4.99023
		C42.567,8.56264,41.3665,7.80057,39.99607,7.6514C38.96268,7.53885,37.91298,7.48043,36.8504,7.48043L36.8504,7.48043z"/>
</g>
<path fill="#D4A017" d="M38.13554,14.70414
	c0,0.71049-0.57783,1.28205-1.28515,1.28205s-1.282-0.57155-1.282-1.28205c0-0.71047,0.57468-1.28202,1.282-1.28202
	S38.13554,13.99367,38.13554,14.70414"/>
</g>
</svg>
